# This file uses centimeters as units for non-parametric coordinates.

mtllib Environment.mtl
g default
v 43.051250 0.000000 -13.988199
v 36.621582 0.000000 -26.607136
v 26.607136 0.000000 -36.621578
v 13.988197 0.000000 -43.051247
v 0.000000 0.000000 -45.266758
v -13.988197 0.000000 -43.051243
v -26.607130 0.000000 -36.621571
v -36.621571 0.000000 -26.607126
v -43.051235 0.000000 -13.988194
v -45.266747 0.000000 0.000000
v -43.051235 0.000000 13.988194
v -36.621567 0.000000 26.607124
v -26.607124 0.000000 36.621563
v -13.988194 0.000000 43.051231
v -0.000001 0.000000 45.266739
v 13.988190 0.000000 43.051228
v 26.607119 0.000000 36.621559
v 36.621559 0.000000 26.607122
v 43.051224 0.000000 13.988191
v 45.266735 0.000000 0.000000
v 43.051250 19.261463 -13.988199
v 36.621582 19.261463 -26.607136
v 26.607136 19.261463 -36.621578
v 13.988197 19.261463 -43.051247
v 0.000000 19.261463 -45.266758
v -13.988197 19.261463 -43.051243
v -26.607130 19.261463 -36.621571
v -36.621571 19.261463 -26.607126
v -43.051235 19.261463 -13.988194
v -45.266747 19.261463 0.000000
v -43.051235 19.261463 13.988194
v -36.621567 19.261463 26.607124
v -26.607124 19.261463 36.621563
v -13.988194 19.261463 43.051231
v -0.000001 19.261463 45.266739
v 13.988190 19.261463 43.051228
v 26.607119 19.261463 36.621559
v 36.621559 19.261463 26.607122
v 43.051224 19.261463 13.988191
v 45.266735 19.261463 0.000000
v 0.000000 0.000000 0.000000
v 0.000000 19.261463 0.000000
vt 0.488771 0.238665
vt 0.460578 0.183333
vt 0.416667 0.139422
vt 0.361335 0.111229
vt 0.300000 0.101515
vt 0.238665 0.111229
vt 0.183333 0.139422
vt 0.139422 0.183333
vt 0.111229 0.238665
vt 0.101515 0.300000
vt 0.111229 0.361335
vt 0.139422 0.416667
vt 0.183333 0.460578
vt 0.238665 0.488771
vt 0.300000 0.498485
vt 0.361335 0.488771
vt 0.416667 0.460578
vt 0.460578 0.416667
vt 0.488771 0.361335
vt 0.498485 0.300000
vt 0.516347 0.149111
vt 0.539712 0.149111
vt 0.563077 0.149111
vt 0.586443 0.149111
vt 0.609808 0.149111
vt 0.633173 0.149111
vt 0.656539 0.149111
vt 0.679904 0.149111
vt 0.703269 0.149111
vt 0.726635 0.149111
vt 0.750000 0.149111
vt 0.773365 0.149111
vt 0.796731 0.149111
vt 0.820096 0.149111
vt 0.843461 0.149111
vt 0.866827 0.149111
vt 0.890192 0.149111
vt 0.913557 0.149111
vt 0.936923 0.149111
vt 0.960288 0.149111
vt 0.983653 0.149111
vt 0.516347 0.851829
vt 0.539712 0.851829
vt 0.563077 0.851829
vt 0.586443 0.851829
vt 0.609808 0.851829
vt 0.633173 0.851829
vt 0.656539 0.851829
vt 0.679904 0.851829
vt 0.703269 0.851829
vt 0.726635 0.851829
vt 0.750000 0.851829
vt 0.773365 0.851829
vt 0.796731 0.851829
vt 0.820096 0.851829
vt 0.843461 0.851829
vt 0.866827 0.851829
vt 0.890192 0.851829
vt 0.913557 0.851829
vt 0.936923 0.851829
vt 0.960288 0.851829
vt 0.983653 0.851829
vt 0.492871 0.687332
vt 0.464066 0.630799
vt 0.419201 0.585934
vt 0.362668 0.557129
vt 0.300000 0.547203
vt 0.237332 0.557129
vt 0.180799 0.585934
vt 0.135934 0.630799
vt 0.107129 0.687332
vt 0.097203 0.750000
vt 0.107129 0.812668
vt 0.135934 0.869201
vt 0.180799 0.914066
vt 0.237332 0.942871
vt 0.300000 0.952797
vt 0.362668 0.942871
vt 0.419201 0.914066
vt 0.464066 0.869201
vt 0.492871 0.812668
vt 0.502797 0.750000
vt 0.300000 0.292061
vt 0.300000 0.741888
vn -0.951057 0.000000 0.309016
vn -0.951057 0.000000 0.309016
vn -0.809017 0.000000 0.587785
vn -0.809017 0.000000 0.587785
vn -0.587785 0.000000 0.809017
vn -0.587785 0.000000 0.809017
vn -0.309017 0.000000 0.951057
vn -0.309017 0.000000 0.951057
vn 0.000000 0.000000 1.000000
vn 0.000000 0.000000 1.000000
vn 0.309017 0.000000 0.951057
vn 0.309017 0.000000 0.951057
vn 0.587785 0.000000 0.809017
vn 0.587785 0.000000 0.809017
vn 0.809017 0.000000 0.587785
vn 0.809017 0.000000 0.587785
vn 0.951057 0.000000 0.309017
vn 0.951057 0.000000 0.309017
vn 1.000000 0.000000 0.000000
vn 1.000000 0.000000 0.000000
vn 0.951057 0.000000 -0.309017
vn 0.951057 0.000000 -0.309017
vn 0.809017 0.000000 -0.587785
vn 0.809017 0.000000 -0.587785
vn 0.587785 0.000000 -0.809017
vn 0.587785 0.000000 -0.809017
vn 0.309017 0.000000 -0.951057
vn 0.309017 0.000000 -0.951057
vn -0.000000 0.000000 -1.000000
vn -0.000000 0.000000 -1.000000
vn -0.309017 0.000000 -0.951057
vn -0.309017 0.000000 -0.951057
vn -0.587785 0.000000 -0.809017
vn -0.587785 0.000000 -0.809017
vn -0.809017 0.000000 -0.587785
vn -0.809017 0.000000 -0.587785
vn -0.951057 0.000000 -0.309017
vn -0.951057 0.000000 -0.309017
vn -1.000000 0.000000 -0.000001
vn -1.000000 0.000000 -0.000001
vn 0.000000 1.000000 0.000000
vn 0.000000 1.000000 0.000000
vn 0.000000 1.000000 0.000000
vn 0.000000 1.000000 0.000000
vn 0.000000 1.000000 0.000000
vn 0.000000 1.000000 0.000000
vn 0.000000 1.000000 0.000000
vn 0.000000 1.000000 0.000000
vn 0.000000 1.000000 0.000000
vn 0.000000 1.000000 0.000000
vn 0.000000 1.000000 0.000000
vn 0.000000 1.000000 0.000000
vn 0.000000 1.000000 0.000000
vn 0.000000 1.000000 0.000000
vn 0.000000 1.000000 0.000000
vn 0.000000 1.000000 0.000000
vn 0.000000 1.000000 0.000000
vn 0.000000 1.000000 0.000000
vn 0.000000 1.000000 0.000000
vn 0.000000 1.000000 0.000000
vn 0.000000 1.000000 0.000000
vn 0.000000 1.000000 0.000000
vn 0.000000 1.000000 0.000000
vn 0.000000 1.000000 0.000000
vn 0.000000 1.000000 0.000000
vn 0.000000 1.000000 0.000000
vn 0.000000 1.000000 0.000000
vn 0.000000 1.000000 0.000000
vn 0.000000 1.000000 0.000000
vn 0.000000 1.000000 -0.000000
vn 0.000000 1.000000 -0.000000
vn 0.000000 1.000000 0.000000
vn 0.000000 1.000000 0.000000
vn 0.000000 1.000000 0.000000
vn 0.000000 1.000000 0.000000
vn 0.000000 1.000000 0.000000
vn 0.000000 1.000000 0.000000
vn 0.000000 1.000000 0.000000
vn 0.000000 1.000000 0.000000
vn 0.000000 1.000000 0.000000
vn 0.000000 1.000000 0.000000
vn 0.000000 1.000000 0.000000
s 1
g pCylinder1
usemtl phong1SG
f 1/21/1 21/42/2 22/43/3 2/22/4
f 2/22/4 22/43/3 23/44/5 3/23/6
f 3/23/6 23/44/5 24/45/7 4/24/8
f 4/24/8 24/45/7 25/46/9 5/25/10
f 5/25/10 25/46/9 26/47/11 6/26/12
f 6/26/12 26/47/11 27/48/13 7/27/14
f 7/27/14 27/48/13 28/49/15 8/28/16
f 8/28/16 28/49/15 29/50/17 9/29/18
f 9/29/18 29/50/17 30/51/19 10/30/20
f 10/30/20 30/51/19 31/52/21 11/31/22
f 11/31/22 31/52/21 32/53/23 12/32/24
f 12/32/24 32/53/23 33/54/25 13/33/26
f 13/33/26 33/54/25 34/55/27 14/34/28
f 14/34/28 34/55/27 35/56/29 15/35/30
f 15/35/30 35/56/29 36/57/31 16/36/32
f 16/36/32 36/57/31 37/58/33 17/37/34
f 17/37/34 37/58/33 38/59/35 18/38/36
f 18/38/36 38/59/35 39/60/37 19/39/38
f 19/39/38 39/60/37 40/61/39 20/40/40
f 20/40/40 40/61/39 21/62/2 1/41/1
s 2
f 2/2/41 41/83/42 1/1/43
f 3/3/44 41/83/42 2/2/41
f 4/4/45 41/83/42 3/3/44
f 5/5/46 41/83/42 4/4/45
f 6/6/47 41/83/42 5/5/46
f 7/7/48 41/83/42 6/6/47
f 8/8/49 41/83/42 7/7/48
f 9/9/50 41/83/42 8/8/49
f 10/10/51 41/83/42 9/9/50
f 11/11/52 41/83/42 10/10/51
f 12/12/53 41/83/42 11/11/52
f 13/13/54 41/83/42 12/12/53
f 14/14/55 41/83/42 13/13/54
f 15/15/56 41/83/42 14/14/55
f 16/16/57 41/83/42 15/15/56
f 17/17/58 41/83/42 16/16/57
f 18/18/59 41/83/42 17/17/58
f 19/19/60 41/83/42 18/18/59
f 20/20/61 41/83/42 19/19/60
f 1/1/43 41/83/42 20/20/61
s 3
f 21/81/62 22/80/63 42/84/64
f 22/80/63 23/79/65 42/84/64
f 23/79/65 24/78/66 42/84/64
f 24/78/66 25/77/67 42/84/64
f 25/77/67 26/76/68 42/84/64
f 26/76/68 27/75/69 42/84/64
f 27/75/69 28/74/70 42/84/64
f 28/74/70 29/73/71 42/84/64
f 29/73/71 30/72/72 42/84/64
f 30/72/72 31/71/73 42/84/64
f 31/71/73 32/70/74 42/84/64
f 32/70/74 33/69/75 42/84/64
f 33/69/75 34/68/76 42/84/64
f 34/68/76 35/67/77 42/84/64
f 35/67/77 36/66/78 42/84/64
f 36/66/78 37/65/79 42/84/64
f 37/65/79 38/64/80 42/84/64
f 38/64/80 39/63/81 42/84/64
f 39/63/81 40/82/82 42/84/64
f 40/82/82 21/81/62 42/84/64
